<svg xmlns="http://www.w3.org/2000/svg" viewBox="0 0 577 576">
<defs><linearGradient x1="78.9%" y1="19.1%" x2="-6.9%" y2="108.2%" id="a">
<stop stop-color="#fff" offset="0%"></stop>
<stop stop-color="#Fff" stop-opacity="0" offset="100%"></stop></linearGradient><linearGradient x1="77%" y1="17.4%" x2="-9%" y2="109.8%" id="b"><stop stop-color="#fff" offset="27.2%"></stop><stop stop-color="#Fff" stop-opacity="0" offset="100%"></stop></linearGradient></defs><g fill="none" fill-rule="nonzero" fill-opacity=".4"><path vector-effect="non-scaling-stroke" d="M279 271c-4 0-7 3-7 7h2c0-3 2-5 5-5v-2zm290 0H279v2h290v-2zm7 7c0-4-3-7-7-7v2c3 0 5 2 5 5h2zm0 290V278h-2v290h2zm-7 7c4 0 7-3 7-7h-2c0 3-2 5-5 5v2zm-290 0h290v-2H279v2zm-7-7c0 4 3 7 7 7v-2c-3 0-5-2-5-5h-2zm0-290v290h2V278h-2zm197 145c0 25-20 45-44 45v2c25 0 46-21 46-47h-2zm-44-45c24 0 44 20 44 45h2c0-26-21-47-46-47v2zm-44 45c0-25 20-45 44-45v-2c-25 0-46 21-46 47h2zm44 45c-24 0-44-20-44-45h-2c0 26 21 47 46 47v-2zm71-45c0 40-32 72-71 72v2c41 0 73-33 73-74h-2zm-71-72c39 0 71 32 71 72h2c0-41-32-74-73-74v2zm-72 72c0-40 32-72 72-72v-2c-41 0-74 33-74 74h2zm72 72c-40 0-72-32-72-72h-2c0 41 33 74 74 74v-2zm0 33c57 0 104-47 104-105h-2c0 57-46 103-102 103v2zM320 423c0 58 47 105 105 105v-2c-57 0-103-46-103-103h-2zm105-105c-58 0-105 47-105 105h2c0-57 46-103 103-103v-2zm104 105c0-58-47-105-104-105v2c56 0 102 46 102 103h2zM425 556c73 0 132-60 132-133h-2c0 72-58 131-130 131v2zM293 423c0 73 59 133 132 133v-2c-72 0-130-59-130-131h-2zm132-133c-73 0-132 60-132 133h2c0-72 58-131 130-131v-2zm132 133c0-73-59-133-132-133v2c72 0 130 59 130 131h2z" fill="url(#a)"></path><path vector-effect="non-scaling-stroke" d="M190 1l1 1 2-2h-3v1zM1 190H0v3l2-2-1-1zm87-87h1v-2l-2 2h1zm0 95h-1v2l2-1-1-1zM198 88l1 1 1-2h-2v1zm-95 0v-1l-2 2h2v-1zM1 219l1-1-2-2v3h1zm189 189v1h3l-2-2-1 1zm-87-87v-1h-2l2 2v-1zm95 0v1h2l-1-2-1 1zM88 211l1-1-2-1v2h1zm0 95h-1l2 2v-2h-1zm131 102l-1-1-2 2h3v-1zm189-189h1v-3l-2 2 1 1zm-87 87h-1v2l2-2h-1zm0-95h1v-2l-2 1 1 1zM211 321l-1-1-1 2h2v-1zm95 0v1l2-2h-2v1zm102-131l-1 1 2 2v-3h-1zM219 1V0h-3l2 2 1-1zm87 87v1h2l-2-2v1zm-95 0v-1h-2l1 2 1-1zm110 110l-1 1 2 1v-2h-1zm0-95h1l-2-2v2h1zM10 2h180V0H10v2zm-8 8c0-5 3-8 8-8V0C4 0 0 4 0 10h2zm0 180V10H0v180h2zm85-87L0 190l2 1 87-87-2-1zm2 95v-95h-2v95h2zM197 87L87 197l2 2L199 89l-2-2zm-94 2h95v-2h-95v2zm87-89l-87 87 1 2 87-87-1-2zM2 399V219H0v180h2zm8 8c-5 0-8-3-8-8H0c0 6 4 10 10 10v-2zm180 0H10v2h180v-2zm-87-85l87 87 1-2-87-87-1 2zm95-2h-95v2h95v-2zM87 212l110 110 2-2L89 210l-2 2zm2 94v-95h-2v95h2zM0 219l87 87 2-1-87-87-2 1zm399 188H219v2h180v-2zm8-8c0 5-3 8-8 8v2c6 0 10-4 10-10h-2zm0-180v180h2V219h-2zm-85 87l87-87-2-1-87 87 2 1zm-2-95v95h2v-95h-2zM212 322l110-110-2-2-110 110 2 2zm94-2h-95v2h95v-2zm-87 89l87-87-1-2-87 87 1 2zM407 10v180h2V10h-2zm-8-8c5 0 8 3 8 8h2c0-6-4-10-10-10v2zM219 2h180V0H219v2zm87 85L219 0l-1 2 87 87 1-2zm-95 2h95v-2h-95v2zm111 108L212 87l-2 2 110 110 2-2zm-2-94v95h2v-95h-2zm89 87l-87-87-2 1 87 87 2-1zm-248-26c0-2 1-3 3-3v-2c-3 0-5 2-5 5h2zm0 81v-81h-2v81h2zm3 3c-2 0-3-1-3-3h-2c0 3 2 5 5 5v-2zm81 0h-81v2h81v-2zm3-3c0 2-1 3-3 3v2c3 0 5-2 5-5h-2zm0-81v81h2v-81h-2zm-3-3c2 0 3 1 3 3h2c0-3-2-5-5-5v2zm-81 0h81v-2h-81v2z" fill="url(#b)"></path></g></svg>
