<svg xmlns="http://www.w3.org/2000/svg" width="449" height="542" fill="none"><g clip-path="url(#a)"><path fill="#0969B7" d="M0 .39h448.5V542H0z"/><rect width="75.179" height="261.924" x="97.633" y="141.217" fill="#075492" rx="3.957"/><rect width="75.179" height="261.924" x="186.66" y="141.217" fill="#075492" rx="3.957"/><rect width="75.179" height="261.924" x="275.688" y="141.217" fill="#075492" rx="3.957"/><path fill="#0969B7" d="M219.303 208.086h9.892v122.261h-9.892zM130.303 208.086h9.892v122.261h-9.892zM308.33 208.086h9.892v122.261h-9.892z"/><path stroke="url(#b)" stroke-width="15.827" d="M-12.723 269.217h421.396"/><circle cx="408.673" cy="269.217" r="15.827" fill="#fff"/><path fill="#075492" d="M318.197 227.956h32.617v88.632h-32.617zM229.195 227.956h32.617v88.632h-32.617zM140.195 227.956h32.617v88.632h-32.617z"/></g><defs><linearGradient id="b" x1="-3.784" x2="231.781" y1="352.128" y2="338.33" gradientUnits="userSpaceOnUse"><stop stop-color="#46E6FF" stop-opacity="0"/><stop offset="1" stop-color="#46E6FF"/></linearGradient><clipPath id="a"><path fill="#fff" d="M0 .39h448.5V542H0z"/></clipPath></defs></svg>