<svg xmlns="http://www.w3.org/2000/svg" width="449" height="542" fill="none"><path fill="#4D2089" d="M.5 0H449v541.61H.5z"/><path fill="#1F0D37" d="M183.332 230.056h83.202v83.202h-83.202z"/><path fill="#46E6FF" d="M215.145 261.869h19.577v19.577h-19.577z"/><circle cx="224.932" cy="271.657" r="94.459" stroke="#772A94" stroke-width="14.683" opacity=".7"/><path stroke="url(#a)" stroke-linecap="round" stroke-width="14.683" d="M224.934 177.198c-52.169 0-94.46 42.291-94.46 94.459 0 34.433 18.424 64.564 45.952 81.07"/><path stroke="url(#b)" stroke-linecap="round" stroke-width="14.683" d="M177.705 353.461c45.179 26.085 102.949 10.605 129.034-34.574 26.084-45.179 10.604-102.95-34.575-129.034-13.412-7.743-27.934-11.824-42.407-12.552"/><circle cx="224.934" cy="271.657" r="124.299" stroke="#772A94" stroke-width="14.683" opacity=".7"/><path stroke="url(#c)" stroke-linecap="round" stroke-width="14.683" d="M283.792 162.178c-35.976-19.342-77.228-19.152-111.588-3.09-23.389 10.934-43.585 29.222-56.751 53.71-32.507 60.464-9.844 135.832 50.62 168.339 43.743 23.517 95.286 18.159 132.758-9.497 14.324-10.572 26.592-24.402 35.581-41.123"/><path stroke="url(#d)" stroke-linecap="round" stroke-width="14.683" d="M130.693 352.707c26.634 30.968 65.204 45.601 103.041 42.945 25.755-1.808 51.17-11.626 72.249-29.755 52.047-44.763 57.952-123.243 13.189-175.29-32.383-37.654-82.414-51.157-127.316-38.797-17.165 4.725-33.58 13.229-47.973 25.608"/><circle cx="224.933" cy="271.657" r="154.077" stroke="#772A94" stroke-width="14.683" opacity=".7"/><path stroke="#772A94" stroke-linecap="round" stroke-width="14.683" d="M224.933 117.58c-85.095 0-154.077 68.983-154.077 154.077 0 85.095 68.982 154.078 154.077 154.078 41.3 0 78.806-16.25 106.471-42.705 18.291-17.491 32.281-39.444 40.222-64.11" opacity=".7"/><path stroke="url(#e)" stroke-linecap="round" stroke-width="14.683" d="M171.96 416.343c-29.972-10.974-54.48-30.282-71.861-54.345-28.957-40.09-38.134-93.378-19.852-143.313 29.255-79.907 117.75-120.969 197.657-91.713 39.483 14.455 69.482 43.373 86.2 78.572"/><defs><linearGradient id="a" x1="225.703" x2="224.934" y1="364.784" y2="177.198" gradientUnits="userSpaceOnUse"><stop stop-color="#E44BF9" stop-opacity="0"/><stop offset=".999" stop-color="#F4259C"/></linearGradient><linearGradient id="b" x1="137.013" x2="181.081" y1="235.024" y2="355.41" gradientUnits="userSpaceOnUse"><stop stop-color="#E44BF9" stop-opacity="0"/><stop offset=".999" stop-color="#F4259C"/></linearGradient><linearGradient id="c" x1="334.412" x2="279.481" y1="330.517" y2="159.86" gradientUnits="userSpaceOnUse"><stop stop-color="#E44BF9" stop-opacity="0"/><stop offset=".999" stop-color="#F4259C"/></linearGradient><linearGradient id="d" x1="143.883" x2="133.885" y1="177.418" y2="356.418" gradientUnits="userSpaceOnUse"><stop stop-color="#E44BF9" stop-opacity="0"/><stop offset=".999" stop-color="#F4259C"/></linearGradient><linearGradient id="e" x1="171.944" x2="364.17" y1="416.336" y2="205.365" gradientUnits="userSpaceOnUse"><stop stop-color="#E44BF9" stop-opacity="0"/><stop offset=".999" stop-color="#F4259C"/></linearGradient></defs></svg>