<svg width="115" height="22" viewBox="0 0 115 22" fill="none" xmlns="http://www.w3.org/2000/svg">
<path d="M11.3142 4.15027L9.04983 5.38124C8.70587 4.63694 8.13261 3.06244 6.24085 3.1197C5.20899 3.14832 4.23444 4.1789 4.23444 5.61026C4.23444 7.07025 4.8937 8.10082 6.92877 9.33179C9.70908 11.0208 11.0849 12.8243 11.0849 15.8015C11.0849 19.1795 9.13582 21.527 5.98289 21.527C2.77263 21.527 1.33948 19.4086 0.450928 16.8321L2.94461 15.6011C3.51787 16.9753 4.06247 18.607 5.66759 18.6356C6.98609 18.6643 8.01796 17.7196 8.01796 16.1164C8.01796 14.6851 7.4447 13.6259 5.123 12.309C2.68664 10.8777 1.1675 8.93101 1.1675 5.95379C1.1675 2.71891 3.43188 0.256976 6.15487 0.256976C9.82373 0.228349 10.9129 3.26283 11.3142 4.15027Z" fill="white"/>
<path d="M15.4418 0.543274H19.4832C23.1808 0.543274 25.4451 3.11972 25.4451 7.32792C25.4451 11.5934 23.2094 14.1984 19.5406 14.1984H18.566V21.1262H15.4131V0.543274H15.4418ZM18.566 11.2212H19.2826C21.0884 11.2212 22.1489 9.78986 22.1489 7.29929C22.1489 4.89461 21.0884 3.49187 19.2539 3.49187H18.566V11.2212Z" fill="white"/>
<path d="M35.8211 16.5172H31.321L30.3751 21.1262H27.3655L31.8942 0.543274H35.4198L39.8912 21.1262H36.7383L35.8211 16.5172ZM31.8656 13.6832H35.2765L33.614 5.46715H33.528L31.8656 13.6832Z" fill="white"/>
<path d="M43.7322 0.543274H47.5443C51.3279 0.543274 53.6209 3.00521 53.6209 6.95576C53.6209 9.4177 52.847 11.2785 51.4138 12.4522L54.5094 21.0976H51.1272L48.6335 13.6259C48.2323 13.6832 47.8596 13.7118 47.4584 13.7118H46.9138V21.0976H43.7608V0.543274H43.7322ZM46.8851 10.8204H47.3724C49.2641 10.8204 50.3533 9.47495 50.3533 7.04164C50.3533 4.75147 49.2641 3.5205 47.3724 3.5205H46.8851V10.8204Z" fill="white"/>
<path d="M63.4522 12.7957L62.0764 15.3722V21.1262H58.9235V0.543274H62.0764V10.4483L66.1179 0.543274H69.5861L65.5159 9.53221L70.016 21.0976H66.4332L63.4522 12.7957Z" fill="white"/>
<path d="M74.0576 0.543274H78.7297C81.9113 0.543274 84.061 2.66169 84.061 5.89656C84.061 7.92909 83.1151 9.67535 81.6533 10.4483C83.3158 11.1353 84.4049 12.9675 84.4049 15.229C84.4049 18.7788 82.1119 21.1549 78.7297 21.1549H74.0863V0.543274H74.0576ZM77.1246 9.38908H78.443C79.8762 9.38908 80.7647 8.15811 80.7647 6.21146C80.7647 4.49382 79.8475 3.32011 78.4717 3.32011H77.1246V9.38908V9.38908ZM78.529 18.3494C80.1055 18.3494 81.1374 17.0898 81.1374 15.1718C81.1374 13.3396 80.1055 12.1087 78.5004 12.1087H77.1532V18.3494H78.529Z" fill="white"/>
<path d="M94.007 21.4697C90.0515 21.4697 87.8158 17.6909 87.8158 10.8204C87.8158 3.9785 90.0515 0.199707 94.007 0.199707C97.9625 0.199707 100.198 4.00712 100.198 10.849C100.198 17.6909 97.9625 21.4697 94.007 21.4697ZM94.007 18.3493C95.8128 18.3493 96.8733 15.687 96.8733 10.8204C96.8733 5.9824 95.8128 3.32007 94.007 3.32007C92.1726 3.32007 91.1407 5.9824 91.1407 10.8204C91.1407 15.687 92.1726 18.3493 94.007 18.3493Z" fill="white"/>
<path d="M106.791 10.7059L102.749 0.514587H106.303L108.883 7.87177L111.262 0.514587H114.558L110.603 10.9349L114.644 21.1262H111.119L108.51 13.7403L106.017 21.1262H102.749L106.791 10.7059Z" fill="white"/>
</svg>
