<svg width="41" height="45" viewBox="0 0 41 45" fill="none" xmlns="http://www.w3.org/2000/svg">
<path d="M10.5744 29.8321V35.8438H12.4948L16.049 29.8321H10.5744ZM31.0397 16.7781H31.0684C32.7309 16.7781 34.078 15.4326 34.078 13.7723C34.078 12.1119 32.7309 10.7664 31.0684 10.7664H31.0397H30.2945L26.7403 16.8067L31.0397 16.7781ZM10.5744 10.7664V17.6083L20.7497 10.7664H10.5744ZM31.0684 29.8321H30.0652L21.1224 35.8438H31.0397C32.7022 35.8438 34.0494 34.4983 34.0494 32.838C34.078 31.1776 32.7309 29.8321 31.0684 29.8321ZM40.7852 22.6467L33.2468 27.7137C35.2532 28.5725 36.6577 30.5478 36.6577 32.8666C36.6577 35.9583 34.164 38.4489 31.0684 38.4489C31.0111 38.4489 19.5172 38.4489 17.3388 38.4489L7.9947 44.7469C7.93737 44.7755 7.88005 44.8041 7.82272 44.8041C7.65074 44.8041 7.50743 44.661 7.50743 44.4892C7.50743 44.432 7.53609 44.3747 7.56475 44.3175L11.0043 38.4775H8.33865C8.16668 38.4775 8.02336 38.3344 8.02336 38.1626V27.5992C8.02336 27.4274 8.16668 27.2843 8.33865 27.2843H20.0045C20.1765 27.2843 20.3198 27.4274 20.3198 27.5992C20.3198 27.6564 20.2911 27.7423 20.2625 27.7996L14.8165 37.0462L33.2755 24.5933H4.81311H1.2589C1.08692 24.5933 0.943604 24.4502 0.943604 24.2784C0.943604 24.1639 1.00093 24.0494 1.11558 23.9922L8.02336 19.3259V10.7378V8.50485C8.02336 8.33309 8.16668 8.18995 8.33865 8.18995H24.5619L31.6417 3.40921L35.4252 0.861393C35.4825 0.832765 35.5398 0.804138 35.5972 0.804138C35.7691 0.804138 35.9125 0.947274 35.9125 1.11904C35.9125 1.17629 35.8838 1.23355 35.8551 1.2908L31.785 8.21858C34.5366 8.56211 36.6577 10.9095 36.6577 13.7436C36.6577 16.8354 34.164 19.3259 31.0684 19.3259C31.0397 19.3259 31.0111 19.3259 30.9824 19.3259H25.2498H22.8421C22.6702 19.3259 22.5268 19.1828 22.5268 19.011C22.5268 18.9538 22.5555 18.8965 22.5555 18.8679L28.6321 8.56211L8.65395 22.0169H37.1163H40.6705C40.8425 22.0169 40.9858 22.16 40.9858 22.3318C40.9571 22.4749 40.8711 22.5894 40.7852 22.6467Z" fill="white"/>
</svg>
