<?xml version="1.0" encoding="utf-8"?>
<!-- Generator: Adobe Illustrator 24.0.2, SVG Export Plug-In . SVG Version: 6.00 Build 0)  -->
<svg version="1.1" id="Layer_1" xmlns="http://www.w3.org/2000/svg" xmlns:xlink="http://www.w3.org/1999/xlink" x="0px" y="0px"
	 viewBox="0 0 30 30" style="enable-background:new 0 0 30 30;" xml:space="preserve">
<style type="text/css">
	

@keyframes flicker {
  0% {
    fill-opacity: .3;
  }
  100% {
    fill-opacity: .1;
  }
}

.st0 {
  animation: flicker 2s ease alternate infinite;
}

.st1 {
	fill-opacity: .2;
	
	animation: flicker 2s ease alternate infinite;
	animation-delay: 3s;
	
}

</style>
<path class="st0" d="M15,9c-3.3,0-6,2.7-6,6l0,0c0,3.3,2.7,6,6,6l0,0c3.3,0,6-2.7,6-6l0,0C21,11.7,18.3,9,15,9z M12.3,12.4
	c0-0.4,0.4-0.8,0.8-0.8l0,0c0.4,0,0.8,0.4,0.8,0.8l0,0c0,0.3-0.1,1-0.4,1.5l0,0c0,0,0,0,0,0l0,0c0.8-0.6,1.8-1,3-1l0,0
	c1.3,0,2.6,0.5,3.4,1.4l0,0l-1.7,1.7c-0.4-0.4-1.1-0.7-1.7-0.7l0,0c-1.3,0-2.4,1.1-2.4,2.4l0,0h-2.4c0-1.1,0.4-2.1,1-2.9l0,0
	c0,0,0,0,0,0l0,0c-0.5,0.2-1.3,0.4-1.5,0.4l0,0c-0.4,0-0.8-0.4-0.8-0.8l0,0c0-0.4,0.4-0.8,0.8-0.8l0,0c0.3,0,1,0.1,1.5,0.4l0,0
	C12.4,13.4,12.3,12.7,12.3,12.4L12.3,12.4z"/>
<path class="st1" d="M6,0H4.3L3.2,1.1C2.8,0.7,2.2,0.4,1.5,0.4C0.9,0.4,0.4,0.6,0,0.9V6C3.3,6,6,3.3,6,0z"/>
<path class="st1" d="M30,6C30,6,30,6,30,6l0-5.1c-0.6,0.4-0.9,1.1-0.9,1.9h-2.4c0-1,0.3-2,0.9-2.8h-0.3c-0.5,0.1-1,0.2-1.2,0.2
	c-0.2,0-0.4-0.1-0.6-0.2H24C24,3.3,26.7,6,30,6z"/>
<g>
	<path class="st1" d="M27.6,29.8c-0.1,0-0.2,0.1-0.4,0.1h0.3C27.5,29.9,27.6,29.9,27.6,29.8C27.6,29.9,27.6,29.8,27.6,29.8z"/>
	<path class="st1" d="M25.5,29.4c0-0.4,0.4-0.8,0.8-0.8c0.3,0,1,0.1,1.5,0.4c-0.2-0.5-0.4-1.2-0.4-1.5c0-0.4,0.4-0.8,0.8-0.8
		c0.4,0,0.8,0.4,0.8,0.8c0,0.3-0.1,1-0.4,1.5c0,0,0,0,0,0c0.4-0.3,0.9-0.6,1.4-0.8V24c0,0,0,0,0,0c-3.3,0-6,2.7-6,6c0,0,0,0,0,0h1.5
		C25.6,29.8,25.5,29.6,25.5,29.4z"/>
</g>
<path class="st1" d="M0,24v4.2c0.5-0.2,1-0.2,1.5-0.2c1.3,0,2.6,0.5,3.4,1.4L4.4,30H6c0,0,0,0,0,0C6,26.7,3.3,24,0,24z"/>
</svg>
